<svg width="58" height="59" viewBox="0 0 58 59" fill="none" xmlns="http://www.w3.org/2000/svg">
<path d="M45.9167 0H12.0833C5.41092 0 0 5.50421 0 12.2917V46.7083C0 53.4958 5.41092 59 12.0833 59H45.9167C52.5915 59 58 53.4958 58 46.7083V12.2917C58 5.50421 52.5915 0 45.9167 0ZM35.1238 48.1587C34.1451 48.3505 33.8333 47.7384 33.8333 47.2147V41.8187C33.8333 39.9823 33.2002 38.7876 32.5042 38.1779C36.8107 37.6912 41.3347 36.0269 41.3347 28.4749C41.3347 26.3263 40.5807 24.571 39.3458 23.1968C39.5439 22.7002 40.2061 20.6992 39.1548 17.9925C39.1548 17.9925 37.5332 17.464 33.843 20.0084C32.2963 19.5659 30.6433 19.352 29 19.3422C27.3567 19.3495 25.7037 19.5659 24.1594 20.0035C20.4667 17.4591 18.8428 17.9876 18.8428 17.9876C17.7939 20.6967 18.4561 22.6953 18.6567 23.1944C17.4193 24.571 16.6653 26.3238 16.6653 28.4724C16.6653 36.0047 21.1773 37.6936 25.4741 38.1927C24.9207 38.6843 24.4204 39.5497 24.2464 40.8231C23.142 41.3246 20.3459 42.1924 18.6204 39.1858C18.6204 39.1858 17.5982 37.2978 15.6552 37.1577C15.6552 37.1577 13.7702 37.1331 15.5223 38.3549C15.5223 38.3549 16.791 38.9597 17.6707 41.2312C17.6707 41.2312 18.7896 44.7417 24.1667 43.5518V47.2123C24.1667 47.731 23.8549 48.3407 22.8907 48.1587C15.2057 45.5603 9.66667 38.1877 9.66667 29.5C9.66667 18.6366 18.3232 9.83333 29 9.83333C39.6768 9.83333 48.3333 18.6366 48.3333 29.5C48.3333 38.1853 42.8016 45.5554 35.1238 48.1587Z" fill="#45449A"/>
</svg>
