<svg width="38" height="40" viewBox="0 0 38 40" fill="none" xmlns="http://www.w3.org/2000/svg">
<path d="M25.3333 3.33333C27.0798 3.33333 28.5 4.82833 28.5 6.66667V26.6667C28.5 32.1817 24.2393 36.6667 19 36.6667C13.7608 36.6667 9.5 32.1817 9.5 26.6667V6.66667C9.5 4.82833 10.9203 3.33333 12.6667 3.33333H25.3333ZM31.6667 6.66667C31.6667 2.985 28.8309 0 25.3333 0H12.6667C9.16908 0 6.33333 2.985 6.33333 6.66667V26.6667C6.33333 34.03 12.0048 40 19 40C25.9952 40 31.6667 34.03 31.6667 26.6667V6.66667ZM20.5833 8.33333C20.5833 7.41333 19.8756 6.66667 19 6.66667C18.1244 6.66667 17.4167 7.41333 17.4167 8.33333V15C17.4167 15.92 18.1244 16.6667 19 16.6667C19.8756 16.6667 20.5833 15.92 20.5833 15V8.33333Z" fill="#D7D7D7"/>
</svg>
