<svg id="visual" viewBox="0 0 900 600" width="900" height="300" preserveAspectRatio="none" xmlns="http://www.w3.org/2000/svg" xmlns:xlink="http://www.w3.org/1999/xlink" version="1.1"><path d="M0 341L21.5 349.8C43 358.7 86 376.3 128.8 377.5C171.7 378.7 214.3 363.3 257.2 364.2C300 365 343 382 385.8 376.7C428.7 371.3 471.3 343.7 514.2 333.3C557 323 600 330 642.8 340.8C685.7 351.7 728.3 366.3 771.2 365.8C814 365.3 857 349.7 878.5 341.8L900 334L900 601L878.5 601C857 601 814 601 771.2 601C728.3 601 685.7 601 642.8 601C600 601 557 601 514.2 601C471.3 601 428.7 601 385.8 601C343 601 300 601 257.2 601C214.3 601 171.7 601 128.8 601C86 601 43 601 21.5 601L0 601Z" fill="#957fef"></path><path d="M0 330L21.5 338.5C43 347 86 364 128.8 377C171.7 390 214.3 399 257.2 402.5C300 406 343 404 385.8 401.8C428.7 399.7 471.3 397.3 514.2 391.7C557 386 600 377 642.8 382.7C685.7 388.3 728.3 408.7 771.2 412C814 415.3 857 401.7 878.5 394.8L900 388L900 601L878.5 601C857 601 814 601 771.2 601C728.3 601 685.7 601 642.8 601C600 601 557 601 514.2 601C471.3 601 428.7 601 385.8 601C343 601 300 601 257.2 601C214.3 601 171.7 601 128.8 601C86 601 43 601 21.5 601L0 601Z" fill="#645da8"></path><path d="M0 442L21.5 446C43 450 86 458 128.8 454.5C171.7 451 214.3 436 257.2 436.3C300 436.7 343 452.3 385.8 450.2C428.7 448 471.3 428 514.2 431.3C557 434.7 600 461.3 642.8 466.3C685.7 471.3 728.3 454.7 771.2 451.2C814 447.7 857 457.3 878.5 462.2L900 467L900 601L878.5 601C857 601 814 601 771.2 601C728.3 601 685.7 601 642.8 601C600 601 557 601 514.2 601C471.3 601 428.7 601 385.8 601C343 601 300 601 257.2 601C214.3 601 171.7 601 128.8 601C86 601 43 601 21.5 601L0 601Z" fill="#3c3b65"></path><path d="M0 525L21.5 517.5C43 510 86 495 128.8 493.7C171.7 492.3 214.3 504.7 257.2 511.8C300 519 343 521 385.8 526.2C428.7 531.3 471.3 539.7 514.2 543.2C557 546.7 600 545.3 642.8 545C685.7 544.7 728.3 545.3 771.2 537.5C814 529.7 857 513.3 878.5 505.2L900 497L900 601L878.5 601C857 601 814 601 771.2 601C728.3 601 685.7 601 642.8 601C600 601 557 601 514.2 601C471.3 601 428.7 601 385.8 601C343 601 300 601 257.2 601C214.3 601 171.7 601 128.8 601C86 601 43 601 21.5 601L0 601Z" fill="#1b1b27"></path></svg>