<svg width="59" height="59" viewBox="0 0 59 59" fill="none" xmlns="http://www.w3.org/2000/svg">
<g clip-path="url(#clip0_11_49)">
<path d="M46.7083 0H12.2917C5.50421 0 0 5.50421 0 12.2917V46.7083C0 53.4958 5.50421 59 12.2917 59H46.7083C53.4982 59 59 53.4958 59 46.7083V12.2917C59 5.50421 53.4982 0 46.7083 0ZM19.6667 46.7083H12.2917V19.6667H19.6667V46.7083ZM15.9792 16.5495C13.6044 16.5495 11.6771 14.6074 11.6771 12.213C11.6771 9.81858 13.6044 7.8765 15.9792 7.8765C18.3539 7.8765 20.2812 9.81858 20.2812 12.213C20.2812 14.6074 18.3564 16.5495 15.9792 16.5495ZM49.1667 46.7083H41.7917V32.9318C41.7917 24.6522 31.9583 25.279 31.9583 32.9318V46.7083H24.5833V19.6667H31.9583V24.0056C35.3902 17.6484 49.1667 17.1788 49.1667 30.0925V46.7083Z" fill="#45449A"/>
</g>
<defs>
<clipPath id="clip0_11_49">
<rect width="59" height="59" fill="white"/>
</clipPath>
</defs>
</svg>
