<svg id="visual" viewBox="0 0 900 600" width="900" height="600" preserveAspectRatio="none" xmlns="http://www.w3.org/2000/svg" xmlns:xlink="http://www.w3.org/1999/xlink" version="1.1"><path d="M0 247L82 145L164 115L245 115L327 187L409 91L491 97L573 103L655 241L736 97L818 109L900 151L900 0L818 0L736 0L655 0L573 0L491 0L409 0L327 0L245 0L164 0L82 0L0 0Z" fill="#1e1e33"></path><path d="M0 319L82 253L164 205L245 187L327 277L409 163L491 205L573 241L655 337L736 229L818 271L900 235L900 149L818 107L736 95L655 239L573 101L491 95L409 89L327 185L245 113L164 113L82 143L0 245Z" fill="#2f2c44"></path><path d="M0 445L82 427L164 409L245 433L327 445L409 403L491 457L573 493L655 451L736 463L818 511L900 427L900 233L818 269L736 227L655 335L573 239L491 203L409 161L327 275L245 185L164 203L82 251L0 317Z" fill="#3a354f"></path><path d="M0 499L82 529L164 499L245 499L327 559L409 517L491 535L573 547L655 499L736 505L818 565L900 547L900 425L818 509L736 461L655 449L573 491L491 455L409 401L327 443L245 431L164 407L82 425L0 443Z" fill="#2f2c44"></path><path d="M0 601L82 601L164 601L245 601L327 601L409 601L491 601L573 601L655 601L736 601L818 601L900 601L900 545L818 563L736 503L655 497L573 545L491 533L409 515L327 557L245 497L164 497L82 527L0 497Z" fill="#1e1e33"></path></svg>