<svg width="43" height="45" viewBox="0 0 43 45" fill="none" xmlns="http://www.w3.org/2000/svg">
<path d="M4.83572 37.5C4.09934 37.5 3.58334 36.915 3.58334 36.2587C3.58334 35.7919 3.84314 35.2913 4.4738 34.9406C7.6773 33.165 11.3861 27.0169 11.3861 23.2256C5.98239 23.3981 3.6353 18.3844 3.6353 15.2419C3.6353 11.4806 6.74922 7.5 11.3538 7.5C17.1606 7.5 20.0076 12.2756 20.0076 17.4506C20.0076 28.665 7.7633 37.5 4.83572 37.5ZM24.2448 37.5C23.5103 37.5 22.9925 36.915 22.9925 36.2587C22.9925 35.7919 23.2523 35.2913 23.8829 34.9406C27.0864 33.165 30.7952 27.0169 30.7952 23.2256C25.3933 23.3981 23.0444 18.3844 23.0444 15.2419C23.0444 11.4806 26.1601 7.5 30.7629 7.5C36.5697 7.5 39.4167 12.2756 39.4167 17.4506C39.4167 28.665 27.1742 37.5 24.2448 37.5Z" fill="#45449A"/>
</svg>
