<svg width="30" height="30" viewBox="0 0 36 30" fill="none" xmlns="http://www.w3.org/2000/svg">
<path d="M34.581 0C35.3173 0 35.8333 0.586875 35.8333 1.24313C35.8333 1.70813 35.5735 2.20875 34.9429 2.55937C31.7394 4.33687 28.0306 10.4831 28.0306 14.2744C33.4343 14.1019 35.7814 19.1156 35.7814 22.2581C35.7814 26.0212 32.6675 30 28.0629 30C22.2579 30 19.4091 25.2244 19.4091 20.0494C19.4091 8.83687 31.6534 0 34.581 0ZM15.1718 0C15.9064 0 16.4242 0.586875 16.4242 1.24313C16.4242 1.70813 16.1644 2.20875 15.5337 2.55937C12.3302 4.33687 8.6215 10.4831 8.6215 14.2744C14.0252 14.1019 16.3722 19.1156 16.3722 22.2581C16.3722 26.0212 13.2565 30 8.65375 30C2.84696 30 0 25.2244 0 20.0494C0 8.83687 12.2425 0 15.1718 0Z" fill="#45449A"/>
</svg>
